<svg width="20" height="20" viewBox="0 0 20 20" fill="none" xmlns="http://www.w3.org/2000/svg"><path fill-rule="evenodd" clip-rule="evenodd" d="M11 3a1 1 0 1 1-2 0 1 1 0 0 1 2 0Zm-.07 9.86A1 1 0 0 0 11.8 14c.86.12 1.13.57 1.2.84.07.35-.1.43-.12.44l-2.87.7-2.87-.7c-.02-.01-.2-.1-.11-.44.06-.27.33-.72 1.2-.84A1 1 0 0 0 7.97 12h-.1c-.15 0-.59-.04-1.14-.2a5.17 5.17 0 0 1-1.61-.74 2.6 2.6 0 0 1-1.01-1.34c-.18-.55-.2-1.34.21-2.45a1 1 0 0 0 .05-.5l1.07.64c.22.13.33.26.4.39.08.12.15.33.15.7a1 1 0 0 0 2 0c0-.63-.12-1.2-.4-1.7-.29-.5-.69-.84-1.12-1.1L3.92 4.15a1 1 0 0 0-1.4.37 3.02 3.02 0 0 0-.2 2.44 5.56 5.56 0 0 0-.11 3.36 4.59 4.59 0 0 0 1.75 2.36c.48.35 1 .6 1.49.8-.18.28-.31.59-.38.9-.25 1.08.19 2.46 1.54 2.82h.02l3.11.77a1 1 0 0 0 .52 0l3.1-.77h.03c1.35-.36 1.79-1.74 1.54-2.81a2.83 2.83 0 0 0-.4-.95c.46-.19.94-.43 1.4-.76a4.59 4.59 0 0 0 1.74-2.36c.3-.97.29-2.09-.11-3.36.27-.77.22-1.66-.2-2.44a1 1 0 0 0-1.4-.37L13.4 5.7c-.43.26-.83.6-1.11 1.1-.29.5-.4 1.07-.4 1.7a1 1 0 1 0 2 0c0-.37.06-.58.13-.7.08-.13.2-.26.42-.39l1.06-.65a1 1 0 0 0 .05.5c.4 1.12.39 1.91.21 2.46a2.6 2.6 0 0 1-1 1.34c-.5.35-1.08.6-1.62.74a4.95 4.95 0 0 1-1.18.2 1 1 0 0 0-1.03.86Zm-3.32-7.8a1 1 0 0 1 1.34-.45c.35.17.72.37 1.05.64.33-.27.7-.47 1.05-.64a1 1 0 0 1 .9 1.78c-.5.25-.7.4-.8.52-.07.08-.15.2-.15.59a1 1 0 1 1-2 0c0-.39-.08-.51-.14-.59-.1-.12-.31-.27-.8-.52a1 1 0 0 1-.45-1.34Z" fill="currentColor"/></svg>