<svg width="20" height="20" viewBox="0 0 20 20" fill="none" xmlns="http://www.w3.org/2000/svg"><path fill-rule="evenodd" clip-rule="evenodd" d="M13.66 4.93a3 3 0 0 0-4.25 0L7.3 7.05a1 1 0 0 0 0 1.41l.71.71a1 1 0 0 1 0 1.42l-3.95 3.95v1.41h1.57l3.78-3.94a1 1 0 0 1 1.43-.01l.7.7a1 1 0 0 0 1.42 0l2.12-2.11a3 3 0 0 0 0-4.25l-1.41-1.41ZM8 3.5a5 5 0 0 1 7.07 0l1.42 1.42a5 5 0 0 1 0 7.07l-2.13 2.12a3 3 0 0 1-4.22.02l-3.37 3.5a1 1 0 0 1-.72.31h-3a1 1 0 0 1-1-1v-2.83a1 1 0 0 1 .3-.7l3.53-3.54a3 3 0 0 1 0-4.24L8 3.5Zm2.83 2.83a1 1 0 0 1 1.41 0l1.42 1.42a1 1 0 0 1-1.42 1.41l-1.41-1.41a1 1 0 0 1 0-1.42Z" fill="currentColor"/></svg>