<svg width="20" height="20" viewBox="0 0 20 20" fill="none"
    xmlns="http://www.w3.org/2000/svg">
    <path d="M5.293 11.543a1 1 0 1 0 1.414 1.414l1.739-1.738.896.784a1 1 0 0 0 1.316 0l.896-.784 1.739 1.738a1 1 0 0 0 1.414-1.414l-1.644-1.644 1.595-1.396a1 1 0 0 0-1.316-1.506L10 9.921 6.659 6.997a1 1 0 1 0-1.317 1.506l1.595 1.396-1.644 1.644Z" fill="currentColor"/>
    <path fill-rule="evenodd" clip-rule="evenodd" d="M2 6a3 3 0 0 1 3-3h10a3 3 0 0 1 3 3v8a3 3 0 0 1-3 3H5a3 3 0 0 1-3-3V6Zm3-1a1 1 0 0 0-1 1v8a1 1 0 0 0 1 1h10a1 1 0 0 0 1-1V6a1 1 0 0 0-1-1H5Z" fill="currentColor"/>
</svg>