<svg width="20" height="20" viewBox="0 0 20 20" fill="none" xmlns="http://www.w3.org/2000/svg"><path fill-rule="evenodd" clip-rule="evenodd" d="M12.86 2.9a3 3 0 1 1 4.25 4.24l-2.4 2.39L16.77 14a2.14 2.14 0 0 1-3.55 2.3l-2.48-2.8-.6.6.22 1.27a2.22 2.22 0 0 1-4.09 1.53l-1.19-1.98-1.98-1.19a2.22 2.22 0 0 1 1.53-4.1l1.27.23.6-.6-2.8-2.48a2.14 2.14 0 0 1 2.3-3.55l4.48 2.04 2.4-2.39Zm2.83 1.4a1 1 0 0 0-1.41 0L11.4 7.2a1 1 0 0 1-1.12.2L5.16 5.07a.14.14 0 0 0-.15.22l3.6 3.18a1 1 0 0 1 .05 1.46l-1.73 1.72a1 1 0 0 1-.88.28l-1.78-.31a.22.22 0 0 0-.15.4l2.2 1.32a1 1 0 0 1 .34.34l1.32 2.2a.22.22 0 0 0 .4-.15l-.31-1.78a1 1 0 0 1 .28-.88l1.72-1.73a1 1 0 0 1 1.46.05l3.18 3.6a.14.14 0 0 0 .22-.15l-2.32-5.12a1 1 0 0 1 .2-1.12l2.88-2.88a1 1 0 0 0 0-1.41Z" fill="currentColor"/></svg>