<svg width="20" height="20" viewBox="0 0 20 20" fill="none" xmlns="http://www.w3.org/2000/svg"><path d="m14.28 13.04-.2-.02-1.13-.12a2.85 2.85 0 0 0-1.48.21 1.5 1.5 0 0 0-.83 1.28c-.02.38.08.77.14 1.03l.07.26.15.59c.13.7-.4 1.23-1 1.23A7.47 7.47 0 0 1 2.5 10 7.47 7.47 0 0 1 10 2.5a7.47 7.47 0 0 1 7.5 7.5c0 1.41-.46 2.15-.97 2.55-.54.42-1.34.59-2.25.5Z" stroke="currentColor" stroke-width="2"/><rect x="10.8" y="4.8" width="2.5" height="2.5" rx="1.25" fill="currentColor"/><rect x="13.2" y="8.2" width="2.5" height="2.5" rx="1.25" fill="currentColor"/><rect x="4.3" y="8.2" width="2.5" height="2.5" rx="1.25" fill="currentColor"/><rect x="6.6" y="4.8" width="2.5" height="2.5" rx="1.25" fill="currentColor"/></svg>