<svg width="20" height="20" viewBox="0 0 20 20" fill="none" xmlns="http://www.w3.org/2000/svg"><path fill-rule="evenodd" clip-rule="evenodd" d="M5 3C3.18 3 2 4.7 2 6.4c0 .61.19 1.16.36 1.59l.23.53.05.09c.08.2.16.36.21.52.1.24.15.54.15.87 0 .33-.06.63-.15.87a8.3 8.3 0 0 1-.21.52l-.05.1-.23.52C2.2 12.44 2 13 2 13.6 2 15.3 3.18 17 5 17h10c1.82 0 3-1.7 3-3.4 0-.61-.19-1.16-.36-1.59l-.23-.53-.05-.09a8.3 8.3 0 0 1-.21-.52A2.54 2.54 0 0 1 17 10c0-.33.06-.63.15-.87.05-.16.13-.33.21-.52l.05-.1.23-.52C17.8 7.56 18 7 18 6.4 18 4.7 16.82 3 15 3H5ZM4 6.4C4 5.45 4.61 5 5 5h6v1a1 1 0 1 0 2 0V5h2c.39 0 1 .45 1 1.4 0 .22-.07.47-.21.83l-.2.45-.05.1a4.54 4.54 0 0 0-.27 3.78c.08.24.18.46.27.65l.05.1.2.46c.14.36.21.61.21.83 0 .95-.61 1.4-1 1.4h-2v-1a1 1 0 1 0-2 0v1H5c-.39 0-1-.45-1-1.4 0-.22.07-.47.21-.83l.2-.45.05-.1a4.54 4.54 0 0 0 .27-3.78c-.08-.23-.18-.46-.27-.65l-.05-.1-.2-.46A2.26 2.26 0 0 1 4 6.4ZM12 8a1 1 0 0 0-1 1v2a1 1 0 1 0 2 0V9a1 1 0 0 0-1-1Z" fill="currentColor"/></svg>